<svg id="visual" viewBox="0 0 450 900" width="450" height="900" xmlns="http://www.w3.org/2000/svg" xmlns:xlink="http://www.w3.org/1999/xlink" version="1.1"><rect x="0" y="0" width="450" height="900" fill="#ffe5bd"></rect><defs><linearGradient id="grad1_0" x1="0%" y1="0%" x2="100%" y2="100%"><stop offset="30%" stop-color="#fcaf3c" stop-opacity="1"></stop><stop offset="70%" stop-color="#fcaf3c" stop-opacity="1"></stop></linearGradient></defs><defs><linearGradient id="grad1_1" x1="0%" y1="0%" x2="100%" y2="100%"><stop offset="30%" stop-color="#fcaf3c" stop-opacity="1"></stop><stop offset="70%" stop-color="#ffe5bd" stop-opacity="1"></stop></linearGradient></defs><defs><linearGradient id="grad2_0" x1="0%" y1="0%" x2="100%" y2="100%"><stop offset="30%" stop-color="#fcaf3c" stop-opacity="1"></stop><stop offset="70%" stop-color="#fcaf3c" stop-opacity="1"></stop></linearGradient></defs><defs><linearGradient id="grad2_1" x1="0%" y1="0%" x2="100%" y2="100%"><stop offset="30%" stop-color="#ffe5bd" stop-opacity="1"></stop><stop offset="70%" stop-color="#fcaf3c" stop-opacity="1"></stop></linearGradient></defs><g transform="translate(450, 0)"><path d="M0 405C-58.1 405 -116.2 405 -155 374.2C-193.8 343.3 -213.3 281.6 -238.3 238.3C-263.3 195 -293.7 170.2 -322.4 133.6C-351.1 96.9 -378.1 48.5 -405 0L0 0Z" fill="#fecb7e"></path><path d="M0 202.5C-29 202.5 -58.1 202.5 -77.5 187.1C-96.9 171.7 -106.7 140.8 -119.1 119.1C-131.6 97.5 -146.9 85.1 -161.2 66.8C-175.6 48.5 -189 24.2 -202.5 0L0 0Z" fill="#fcaf3c"></path></g><g transform="translate(0, 900)"><path d="M0 -405C57.3 -404.7 114.6 -404.4 155 -374.2C195.4 -344 218.9 -283.9 238.3 -238.3C257.7 -192.7 273.1 -161.7 300.3 -124.4C327.4 -87.1 366.2 -43.5 405 0L0 0Z" fill="#fecb7e"></path><path d="M0 -202.5C28.6 -202.3 57.3 -202.2 77.5 -187.1C97.7 -172 109.4 -141.9 119.1 -119.1C128.9 -96.4 136.6 -80.8 150.1 -62.2C163.7 -43.5 183.1 -21.8 202.5 0L0 0Z" fill="#fcaf3c"></path></g></svg>