<svg id="visual" viewBox="0 0 900 600" width="900" height="600" xmlns="http://www.w3.org/2000/svg" xmlns:xlink="http://www.w3.org/1999/xlink" version="1.1"><rect x="0" y="0" width="900" height="600" fill="#f9f9f9"></rect><defs><linearGradient id="grad1_0" x1="33.3%" y1="0%" x2="100%" y2="100%"><stop offset="20%" stop-color="#f9f9f9" stop-opacity="1"></stop><stop offset="80%" stop-color="#f9f9f9" stop-opacity="1"></stop></linearGradient></defs><defs><linearGradient id="grad2_0" x1="0%" y1="0%" x2="66.7%" y2="100%"><stop offset="20%" stop-color="#f9f9f9" stop-opacity="1"></stop><stop offset="80%" stop-color="#f9f9f9" stop-opacity="1"></stop></linearGradient></defs><g transform="translate(900, 0)"><path d="M0 486.7C-43.1 462.3 -86.2 437.9 -139.1 428C-191.9 418 -254.4 422.5 -283.3 389.9C-312.2 357.4 -307.3 287.8 -337.4 245.1C-367.4 202.5 -432.2 186.8 -462.9 150.4C-493.6 114.1 -490.2 57 -486.7 0L0 0Z" fill="#ffa75f"></path></g><g transform="translate(0, 600)"><path d="M0 -486.7C56.9 -487 113.7 -487.2 147.1 -452.7C180.5 -418.2 190.4 -349 233.9 -322C277.5 -295 354.6 -310.3 393.8 -286.1C432.9 -261.9 434 -198.3 443.2 -144C452.3 -89.7 469.5 -44.9 486.7 0L0 0Z" fill="#ffa75f"></path></g></svg>