<svg id="visual" viewBox="0 0 450 900" width="450" height="900" xmlns="http://www.w3.org/2000/svg" xmlns:xlink="http://www.w3.org/1999/xlink" version="1.1"><rect x="0" y="0" width="450" height="900" fill="#191919"></rect><defs><linearGradient id="grad1_0" x1="0%" y1="0%" x2="100%" y2="100%"><stop offset="30%" stop-color="#191919" stop-opacity="1"></stop><stop offset="70%" stop-color="#191919" stop-opacity="1"></stop></linearGradient></defs><defs><linearGradient id="grad2_0" x1="0%" y1="0%" x2="100%" y2="100%"><stop offset="30%" stop-color="#191919" stop-opacity="1"></stop><stop offset="70%" stop-color="#191919" stop-opacity="1"></stop></linearGradient></defs><g transform="translate(450, 0)"><path d="M0 405C-44.2 373.8 -88.4 342.6 -133.6 322.4C-178.7 302.2 -224.7 293 -268 268C-311.3 243 -351.8 202.3 -374.2 155C-396.5 107.7 -400.8 53.8 -405 0L0 0Z" fill="#F7770F"></path></g><g transform="translate(0, 900)"><path d="M0 -405C42.6 -365.9 85.3 -326.7 125.1 -302.1C165 -277.5 202.1 -267.4 247.5 -247.5C292.9 -227.6 346.5 -197.9 374.2 -155C401.8 -112.1 403.4 -56.1 405 0L0 0Z" fill="#F7770F"></path></g></svg>